# xmcd
#
# Track frame offsets: 
#        150
#        22863
#        50409
#        78721
#        101143
#        129568
#        158390
#        183328
#        205598
#        226348
#        236854
#        253268
#        268371
#
# Disc length: 3750 seconds
#
# Revision: 0
# Processed by: cddbd v1.5.1PL2 Copyright (c) Steve Scherf et al.
# Submitted via: ExactAudioCopy v0.95b3
#
DISCID=ae0ea40d
DTITLE=Sherman 'Tank' Doucette - Live Blues 1
DYEAR=1900
DGENRE=Blues
TTITLE0=You Don't Have To Go
TTITLE1=Oh Pretty Woman
TTITLE2=Long Distance Call
TTITLE3=Sugar Sweet
TTITLE4=Strut
TTITLE5=Driftin' and Driftin'
TTITLE6=Caldonia
TTITLE7=Sideways
TTITLE8=Don't Lose Your Cool
TTITLE9=Nobody's Fault But Mine
TTITLE10=Rollin' Stone
TTITLE11=Rollin' and Tumblin'
TTITLE12=Honey Bee
EXTD=
EXTT0=
EXTT1=
EXTT2=
EXTT3=
EXTT4=
EXTT5=
EXTT6=
EXTT7=
EXTT8=
EXTT9=
EXTT10=
EXTT11=
EXTT12=
PLAYORDER=
